<?xml version="1.0" encoding="UTF-8" standalone="no"?>
<svg
   width="456"
   height="456"
   viewBox="0 0 456 456"
   version="1.1"
   xml:space="preserve"
   style="fill-rule:evenodd;clip-rule:evenodd;stroke-linejoin:round;stroke-miterlimit:2;"
   id="svg242"
   sodipodi:docname="appiconfg.svg"
   inkscape:version="1.1.1 (3bf5ae0d25, 2021-09-20)"
   xmlns:inkscape="http://www.inkscape.org/namespaces/inkscape"
   xmlns:sodipodi="http://sodipodi.sourceforge.net/DTD/sodipodi-0.dtd"
   xmlns="http://www.w3.org/2000/svg"
   xmlns:svg="http://www.w3.org/2000/svg"><defs
   id="defs246" /><sodipodi:namedview
   id="namedview244"
   pagecolor="#ffffff"
   bordercolor="#999999"
   borderopacity="1"
   inkscape:pageshadow="0"
   inkscape:pageopacity="0"
   inkscape:pagecheckerboard="true"
   showgrid="false"
   inkscape:zoom="1.3537373"
   inkscape:cx="191.69155"
   inkscape:cy="357.15939"
   inkscape:window-width="2560"
   inkscape:window-height="1387"
   inkscape:window-x="-8"
   inkscape:window-y="-8"
   inkscape:window-maximized="1"
   inkscape:current-layer="svg242" />
    
    
    
    
<g
   aria-label="
VIỆT"
   id="text1233"
   style="font-size:112px;line-height:1.25;letter-spacing:0px;word-spacing:0px;fill:#ffffff"><path
     d="m 150.60816,200.90417 v -5.712 h 24.304 v 6.048 l -8.4,1.344 -23.072,66.416 h -10.864 l -24.08,-67.088 -6.496,-0.672 v -6.048 h 36.064 v 5.712 l -9.52,1.232 15.344,46.144 15.456,-45.92 z"
     style="font-weight:bold;font-family:'Source Serif Pro';-inkscape-font-specification:'Source Serif Pro Bold';fill:#ffffff"
     id="path57972" /><path
     d="m 178.83208,201.24017 v -6.048 h 36.064 v 6.048 l -8.4,0.896 q -0.112,6.832 -0.224,13.776 0,6.944 0,14 v 4.032 q 0,6.944 0,14 0.112,6.944 0.224,13.888 l 8.4,0.896 v 6.048 h -36.064 v -6.048 l 8.4,-0.896 q 0.224,-6.832 0.224,-13.776 0,-6.944 0,-14 v -4.144 q 0,-6.944 0,-13.888 0,-7.056 -0.224,-13.888 z"
     style="font-weight:bold;font-family:'Source Serif Pro';-inkscape-font-specification:'Source Serif Pro Bold';fill:#ffffff"
     id="path57974" /><path
     d="m 222.28792,201.24017 v -6.048 h 57.12 l 0.784,19.264 h -9.296 l -2.24,-12.992 h -18.704 q -0.112,6.384 -0.224,12.88 0,6.496 0,13.104 h 12.096 l 1.344,-8.736 h 6.496 v 24.08 h -6.496 l -1.344,-8.736 h -12.096 q 0,7.728 0,14.672 0.112,6.944 0.224,13.776 h 20.944 l 2.24,-12.992 h 9.296 l -0.784,19.264 h -59.36 v -6.048 l 8.4,-0.896 q 0.224,-6.832 0.224,-13.776 0,-6.944 0,-14 v -4.144 q 0,-6.944 0,-13.888 0,-7.056 -0.224,-13.888 z m 36.288,-30.352 16.8,16.912 -3.36,4.032 -17.248,-9.52 -17.248,9.52 -3.36,-4.032 16.8,-16.912 z m -4.368,123.088 q -3.92,0 -6.72,-2.576 -2.8,-2.464 -2.8,-6.272 0,-3.92 2.8,-6.496 2.8,-2.464 6.72,-2.464 3.92,0 6.72,2.464 2.8,2.576 2.8,6.496 0,3.808 -2.8,6.272 -2.8,2.576 -6.72,2.576 z"
     style="font-weight:bold;font-family:'Source Serif Pro';-inkscape-font-specification:'Source Serif Pro Bold';fill:#ffffff"
     id="path57976" /><path
     d="m 287.47184,216.02417 0.448,-20.832 h 65.744 l 0.336,20.832 h -9.296 l -2.016,-14.56 h -12.32 q -0.112,6.944 -0.224,14.112 0,7.056 0,14.336 v 4.032 q 0,6.944 0,13.888 0.112,6.944 0.224,13.888 l 9.632,1.008 v 6.048 h -38.416 v -6.048 l 9.52,-1.008 q 0.224,-6.832 0.224,-13.776 0,-6.944 0,-13.888 v -4.144 q 0,-7.056 0,-14.112 0,-7.168 -0.224,-14.336 h -12.208 l -2.128,14.56 z"
     style="font-weight:bold;font-family:'Source Serif Pro';-inkscape-font-specification:'Source Serif Pro Bold';fill:#ffffff"
     id="path57978" /></g></svg>
